<svg version="1.1" xmlns="http://www.w3.org/2000/svg" viewBox="0 0 858.5274933420121 622.4420776367188" width="1717.0549866840242" height="1244.8841552734375">
  <!-- svg-source:excalidraw -->
  
  <defs>
    <style class="style-fonts">
      @font-face {
        font-family: "Virgil";
        src: url("https://excalidraw.com/Virgil.woff2");
      }
      @font-face {
        font-family: "Cascadia";
        src: url("https://excalidraw.com/Cascadia.woff2");
      }
      @font-face {
        font-family: "Assistant";
        src: url("https://excalidraw.com/Assistant-Regular.woff2");
      }
    </style>
    
  </defs>
  <rect x="0" y="0" width="858.5274933420121" height="622.4420776367188" fill="#ffffff"></rect><g stroke-linecap="round" transform="translate(10 10) rotate(0 416.55555725097656 301.2210388183594)"><path d="M32 0 C235.85 -1.77, 439.2 -2.1, 801.11 0 M32 0 C259.56 2.34, 487.65 2.68, 801.11 0 M801.11 0 C823.09 0.55, 834.71 9.55, 833.11 32 M801.11 0 C820.17 0.31, 834.22 9.24, 833.11 32 M833.11 32 C832.64 164.72, 831.74 298.78, 833.11 570.44 M833.11 32 C833.31 179.69, 833.32 327.08, 833.11 570.44 M833.11 570.44 C833.17 593.01, 821.36 603.79, 801.11 602.44 M833.11 570.44 C833.35 590.99, 821.68 601.94, 801.11 602.44 M801.11 602.44 C618.31 604.35, 435.66 604.07, 32 602.44 M801.11 602.44 C593.14 603.57, 385.72 603.38, 32 602.44 M32 602.44 C8.75 604.04, 1.59 590.01, 0 570.44 M32 602.44 C10.06 600.32, 1.49 592.09, 0 570.44 M0 570.44 C1.48 371.46, 1.99 173.54, 0 32 M0 570.44 C-0.35 363.82, -0.22 156.46, 0 32 M0 32 C-1.77 11.38, 9.3 0.33, 32 0 M0 32 C-1.28 11.43, 11.43 -0.88, 32 0" stroke="#1e1e1e" stroke-width="2" fill="none"></path></g><g stroke-linecap="round"><g transform="translate(12.083404541015625 40.961700439453125) rotate(0 415.69696044921875 0.2410736083984375)"><path d="M0.31 1.05 C138.92 1.28, 693.74 0.84, 832.29 0.72 M-0.99 0.56 C137.5 0.46, 693.16 -1.44, 831.82 -1.27" stroke="#1e1e1e" stroke-width="2" fill="none"></path></g></g><mask></mask><g transform="translate(292.6277160644531 18.866241455078125) rotate(0 129.2698974609375 12.5)"><text x="0" y="17.52" font-family="Virgil, Segoe UI Emoji" font-size="20px" fill="#1e1e1e" text-anchor="start" style="white-space: pre;" direction="ltr" dominant-baseline="alphabetic">Announcement banner &lt;div&gt;</text></g><g stroke-linecap="round"><g transform="translate(12.274810791015625 78.56753540039062) rotate(0 416.95843505859375 -0.6075439453125)"><path d="M0.78 -1.2 C139.96 -1.3, 695.92 -0.79, 834.7 -0.9 M-0.27 0.79 C138.86 0.33, 695.37 -2.58, 834.17 -2.85" stroke="#1e1e1e" stroke-width="2" fill="none"></path></g></g><mask></mask><g transform="translate(375.8137512207031 54.1566162109375) rotate(0 27.469985961914062 12.5)"><text x="0" y="17.52" font-family="Virgil, Segoe UI Emoji" font-size="20px" fill="#1e1e1e" text-anchor="start" style="white-space: pre;" direction="ltr" dominant-baseline="alphabetic">&lt;nav&gt;</text></g><g stroke-linecap="round"><g transform="translate(181.86880493164062 78.738525390625) rotate(0 1.225555419921875 244.03692626953125)"><path d="M0.03 -0.16 C0.23 81.25, 1.08 407.34, 1.61 488.77 M-1.41 -1.29 C-0.86 79.74, 3.17 405.75, 3.88 487.01" stroke="#1e1e1e" stroke-width="2" fill="none"></path></g></g><mask></mask><g transform="translate(63.128753662109375 92.935791015625) rotate(0 36.34996795654297 12.5)"><text x="0" y="17.52" font-family="Virgil, Segoe UI Emoji" font-size="20px" fill="#1e1e1e" text-anchor="start" style="white-space: pre;" direction="ltr" dominant-baseline="alphabetic">&lt;aside&gt;</text></g><g transform="translate(422.8137512207031 104.1566162109375) rotate(0 30.759979248046875 12.5)"><text x="0" y="17.52" font-family="Virgil, Segoe UI Emoji" font-size="20px" fill="#1e1e1e" text-anchor="start" style="white-space: pre;" direction="ltr" dominant-baseline="alphabetic">&lt;main&gt;</text></g><g stroke-linecap="round"><g transform="translate(11.294219970703125 571.0615234375) rotate(0 418.66912841796875 0.294189453125)"><path d="M0.58 -1.05 C139.95 -0.7, 697.91 1.4, 837.23 1.73 M-0.58 1.01 C138.53 1.1, 696.3 0.58, 836.23 0.21" stroke="#1e1e1e" stroke-width="2" fill="none"></path></g></g><mask></mask><g transform="translate(353.8137512207031 585.1566162109375) rotate(0 42.25995635986328 12.5)"><text x="0" y="17.52" font-family="Virgil, Segoe UI Emoji" font-size="20px" fill="#1e1e1e" text-anchor="start" style="white-space: pre;" direction="ltr" dominant-baseline="alphabetic">&lt;footer&gt;</text></g><g stroke-linecap="round" transform="translate(18.767333984375 123.15283203125) rotate(0 76.93373107910156 203.81143188476562)"><path d="M32 0 C61.21 -1.8, 87.28 -1.35, 121.87 0 M32 0 C55.44 -0.13, 80.49 0.2, 121.87 0 M121.87 0 C141.97 1.12, 154.12 10.92, 153.87 32 M121.87 0 C141.08 0.88, 152.8 10.35, 153.87 32 M153.87 32 C153.21 163.1, 153.38 292.79, 153.87 375.62 M153.87 32 C153.82 121.9, 154.17 211.67, 153.87 375.62 M153.87 375.62 C152.58 398.9, 143.99 409.6, 121.87 407.62 M153.87 375.62 C152.49 399.11, 141.39 408.98, 121.87 407.62 M121.87 407.62 C102.17 407.92, 80.62 405.92, 32 407.62 M121.87 407.62 C88.61 407.73, 56.47 406.99, 32 407.62 M32 407.62 C11.87 405.68, 1.15 396.05, 0 375.62 M32 407.62 C10.09 409.22, -1.37 394.8, 0 375.62 M0 375.62 C0.38 298.92, -1.08 220.77, 0 32 M0 375.62 C-2.13 242.23, -1.53 109.75, 0 32 M0 32 C1.27 10.71, 9.1 -0.61, 32 0 M0 32 C1.54 12.23, 12.1 2.26, 32 0" stroke="#1e1e1e" stroke-width="2" fill="none"></path></g><g transform="translate(67.42544555664062 155.7679443359375) rotate(0 27.469985961914062 12.5)"><text x="0" y="17.52" font-family="Virgil, Segoe UI Emoji" font-size="20px" fill="#1e1e1e" text-anchor="start" style="white-space: pre;" direction="ltr" dominant-baseline="alphabetic">&lt;nav&gt;</text></g></svg>