<svg version="1.1" xmlns="http://www.w3.org/2000/svg" viewBox="0 0 608 535.3333435058594" width="608" height="535.3333435058594">
  <!-- svg-source:excalidraw -->
  
  <defs>
    <style class="style-fonts">
      @font-face {
        font-family: "Virgil";
        src: url("https://excalidraw.com/Virgil.woff2");
      }
      @font-face {
        font-family: "Cascadia";
        src: url("https://excalidraw.com/Cascadia.woff2");
      }
      @font-face {
        font-family: "Assistant";
        src: url("https://excalidraw.com/Assistant-Regular.woff2");
      }
    </style>
    
  </defs>
  <rect x="0" y="0" width="608" height="535.3333435058594" fill="#ffffff"></rect><g stroke-linecap="round" transform="translate(10 10) rotate(0 294 257.6666717529297)"><path d="M32 0 C233.91 -0.76, 436.61 -1.13, 556 0 M32 0 C220.36 -0.99, 408.02 -0.6, 556 0 M556 0 C575.73 0.2, 588.92 11.43, 588 32 M556 0 C575.64 -1.36, 589.7 12.88, 588 32 M588 32 C588.79 177.98, 589.34 323.81, 588 483.33 M588 32 C589.54 174.76, 589.18 318.06, 588 483.33 M588 483.33 C586.73 504.48, 575.64 514.64, 556 515.33 M588 483.33 C585.98 502.84, 578.9 516.69, 556 515.33 M556 515.33 C365.1 514.56, 173.1 514.7, 32 515.33 M556 515.33 C409.62 514.24, 263.37 514.34, 32 515.33 M32 515.33 C10.8 516.9, -0.76 503.34, 0 483.33 M32 515.33 C8.49 515.05, 1.03 506.43, 0 483.33 M0 483.33 C1.99 369.83, 2.43 255.29, 0 32 M0 483.33 C1.63 360.99, 1.48 237.4, 0 32 M0 32 C-0.44 12.02, 9.15 -0.25, 32 0 M0 32 C1.83 11.59, 12.06 0.09, 32 0" stroke="#000000" stroke-width="1" fill="none"></path></g><g stroke-linecap="round" transform="translate(39.33331298828125 46) rotate(0 264.3333435058594 224.6666717529297)"><path d="M32 0 C194.49 -1.76, 358.4 -1.32, 496.67 0 M32 0 C148.84 -1.41, 266.03 -1.03, 496.67 0 M496.67 0 C516.08 0.09, 528.64 10.92, 528.67 32 M496.67 0 C517.65 -2.24, 526.94 10.14, 528.67 32 M528.67 32 C529.42 143.27, 529.19 255.6, 528.67 417.33 M528.67 32 C529 162.93, 529.78 293.25, 528.67 417.33 M528.67 417.33 C529.63 437.01, 516.82 448.11, 496.67 449.33 M528.67 417.33 C527.62 437.58, 519.15 448.62, 496.67 449.33 M496.67 449.33 C375.19 450.3, 253.76 451.47, 32 449.33 M496.67 449.33 C328.26 449.72, 159.8 449.26, 32 449.33 M32 449.33 C10.95 447.98, 0.92 440.26, 0 417.33 M32 449.33 C11 448.08, 0.02 438.06, 0 417.33 M0 417.33 C-0.51 292.77, -0.43 167.61, 0 32 M0 417.33 C-2.33 273.63, -2.65 131.01, 0 32 M0 32 C0.64 11.47, 8.68 -1.3, 32 0 M0 32 C1.15 10.63, 10.73 -1.45, 32 0" stroke="#000000" stroke-width="1" fill="none"></path></g><g transform="translate(254.6666259765625 18.666656494140625) rotate(0 41.47996520996094 12.5)"><text x="0" y="17.52" font-family="Virgil, Segoe UI Emoji" font-size="20px" fill="#000000" text-anchor="start" style="white-space: pre;" direction="ltr" dominant-baseline="alphabetic">&lt;center&gt;</text></g><g transform="translate(263.33331298828125 60.666656494140625) rotate(0 36.39997100830078 12.5)"><text x="0" y="17.52" font-family="Virgil, Segoe UI Emoji" font-size="20px" fill="#000000" text-anchor="start" style="white-space: pre;" direction="ltr" dominant-baseline="alphabetic">&lt;table&gt;</text></g><g stroke-linecap="round"><g transform="translate(42 89.33334350585938) rotate(0 265.33331298828125 1.666656494140625)"><path d="M-0.14 1.14 C88.39 1.47, 442.99 2.38, 531.56 2.65 M-1.67 0.69 C86.74 1.1, 442.33 3.31, 531.07 3.83" stroke="#000000" stroke-width="1" fill="none"></path></g></g><mask></mask><g stroke-linecap="round"><g transform="translate(42 131.33334350585938) rotate(0 263.3333435058594 -0.6666717529296875)"><path d="M1.04 0.28 C88.87 -0.03, 439.72 -1.31, 527.39 -1.49 M0.13 -0.61 C87.82 -0.77, 439.09 0.34, 526.81 -0.03" stroke="#000000" stroke-width="1" fill="none"></path></g></g><mask></mask><g stroke-linecap="round" transform="translate(47.33331298828125 141.33334350585938) rotate(0 257.66668701171875 156.33334350585938)"><path d="M32 0 C167.33 1.88, 304.74 0.87, 483.33 0 M32 0 C179.69 1.82, 326.86 1.88, 483.33 0 M483.33 0 C505.43 0.87, 514.5 9.04, 515.33 32 M483.33 0 C502.8 -0.8, 517.21 9.71, 515.33 32 M515.33 32 C516.86 111.12, 515.63 186.8, 515.33 280.67 M515.33 32 C516.89 102.84, 516.68 173.56, 515.33 280.67 M515.33 280.67 C516.99 302.45, 504.97 311.4, 483.33 312.67 M515.33 280.67 C514.9 302.53, 505.01 310.45, 483.33 312.67 M483.33 312.67 C329.76 313.19, 176.73 312.4, 32 312.67 M483.33 312.67 C387.97 312.03, 292.56 311.61, 32 312.67 M32 312.67 C12.12 312.61, 0.89 302.31, 0 280.67 M32 312.67 C10.21 313.63, 0.32 301.29, 0 280.67 M0 280.67 C-1.1 217.18, -2.07 154.81, 0 32 M0 280.67 C-1.81 225.69, -0.73 170.16, 0 32 M0 32 C1.31 8.78, 11.75 -0.01, 32 0 M0 32 C1.9 8.72, 8.68 -1.43, 32 0" stroke="#000000" stroke-width="1" fill="none"></path></g><g transform="translate(296.7800064086914 285.16668701171875) rotate(0 8.219993591308594 12.5)"><text x="8.219993591308594" y="17.52" font-family="Virgil, Segoe UI Emoji" font-size="20px" fill="#000000" text-anchor="middle" style="white-space: pre;" direction="ltr" dominant-baseline="alphabetic">...</text></g><g stroke-linecap="round"><g transform="translate(40 455.3333435058594) rotate(0 263.3333435058594 -0.333343505859375)"><path d="M1.16 -0.71 C89.03 -0.95, 439.97 -1.13, 527.46 -1.05 M0.31 1.53 C88.06 1.43, 439.48 0.93, 526.93 0.29" stroke="#000000" stroke-width="1" fill="none"></path></g></g><mask></mask><g transform="translate(219.33331298828125 105.66665649414062) rotate(0 75.48994445800781 12.5)"><text x="0" y="17.52" font-family="Virgil, Segoe UI Emoji" font-size="20px" fill="#000000" text-anchor="start" style="white-space: pre;" direction="ltr" dominant-baseline="alphabetic">&lt;tr&gt; as header</text></g><g transform="translate(238.66668701171875 468.9999694824219) rotate(0 74.3099365234375 12.5)"><text x="0" y="17.52" font-family="Virgil, Segoe UI Emoji" font-size="20px" fill="#000000" text-anchor="start" style="white-space: pre;" direction="ltr" dominant-baseline="alphabetic">&lt;tr&gt; as footer</text></g><g transform="translate(271 170.00003051757812) rotate(0 36.39997100830078 25)"><text x="0" y="17.52" font-family="Virgil, Segoe UI Emoji" font-size="20px" fill="#000000" text-anchor="start" style="white-space: pre;" direction="ltr" dominant-baseline="alphabetic">&lt;table&gt;</text><text x="0" y="42.519999999999996" font-family="Virgil, Segoe UI Emoji" font-size="20px" fill="#000000" text-anchor="start" style="white-space: pre;" direction="ltr" dominant-baseline="alphabetic"></text></g><g transform="translate(243.33331298828125 263.6666564941406) rotate(0 68.01994323730469 12.5)"><text x="0" y="17.52" font-family="Virgil, Segoe UI Emoji" font-size="20px" fill="#000000" text-anchor="start" style="white-space: pre;" direction="ltr" dominant-baseline="alphabetic">&lt;tr&gt; as items</text></g></svg>